<svg width="38" height="38" viewBox="0 0 38 38" fill="none" xmlns="http://www.w3.org/2000/svg">
<path fill-rule="evenodd" clip-rule="evenodd" d="M31.3096 9.46915H10.9268C10.3252 9.46915 9.83582 9.82402 9.83582 10.2602C9.83582 10.6964 10.3252 11.0513 10.9268 11.0513H31.3096C31.9111 11.0513 32.4005 10.6964 32.4005 10.2602C32.4005 9.82402 31.9111 9.46915 31.3096 9.46915Z" fill="#FFC917"/>
<path fill-rule="evenodd" clip-rule="evenodd" d="M32.4003 14.4663C32.4003 14.0227 31.9826 13.6752 31.4494 13.6752H10.7866C10.2534 13.6752 9.83569 14.0227 9.83569 14.4663C9.83569 14.9099 10.2534 15.2574 10.7866 15.2574H31.4494C31.9826 15.2574 32.4003 14.9099 32.4003 14.4663Z" fill="#FFC917"/>
<path fill-rule="evenodd" clip-rule="evenodd" d="M31.3096 17.8814H19.7798C19.1783 17.8814 18.6888 18.2363 18.6888 18.6724C18.6888 19.1086 19.1783 19.4635 19.7798 19.4635H31.3096C31.911 19.4635 32.4005 19.1086 32.4005 18.6724C32.4005 18.2363 31.911 17.8814 31.3096 17.8814Z" fill="#FFC917"/>
<path fill-rule="evenodd" clip-rule="evenodd" d="M31.4494 22.0875H24.2004C23.6672 22.0875 23.2494 22.4349 23.2494 22.8786C23.2494 23.3223 23.6672 23.6697 24.2004 23.6697H31.4494C31.9826 23.6697 32.4002 23.3223 32.4002 22.8786C32.4002 22.4349 31.9826 22.0875 31.4494 22.0875Z" fill="#FFC917"/>
<path fill-rule="evenodd" clip-rule="evenodd" d="M31.4493 26.2936H22.4119C21.8787 26.2936 21.4609 26.6411 21.4609 27.0847C21.4609 27.5284 21.8787 27.8758 22.4119 27.8758H31.4493C31.9826 27.8758 32.4003 27.5284 32.4003 27.0847C32.4003 26.6411 31.9826 26.2936 31.4493 26.2936Z" fill="#FFC917"/>
<mask id="mask0" mask-type="alpha" maskUnits="userSpaceOnUse" x="0" y="0" width="38" height="37">
<path fill-rule="evenodd" clip-rule="evenodd" d="M0 0.136749H37.95V36.7671H0V0.136749Z" fill="white"/>
</mask>
<g mask="url(#mask0)">
<path fill-rule="evenodd" clip-rule="evenodd" d="M31.2438 2.11645L31.4384 2.26613L31.4381 2.26627L32.7659 3.28766L32.7661 3.28759L35.3764 5.29579H31.2438V2.11645ZM37.1014 33.2624C36.6756 33.2308 36.2509 33.4257 36.1118 33.7737C36.0832 33.8455 36.0718 33.9202 36.0718 33.9957V35.3225H6.16429V31.7891C6.48333 31.8917 6.81181 31.9817 7.15 32.0587C12.6128 33.3049 18.2967 30.7935 19.6909 26.5854C20.109 25.3231 20.0929 24.0521 19.7147 22.8674C19.5367 22.3063 18.63 22.1121 18.1062 22.5253C17.8756 22.7071 17.7852 22.9671 17.8643 23.2133C18.1756 24.1898 18.1842 25.2389 17.8261 26.2792C16.7394 29.4404 12.5956 31.4338 8.42714 30.7942C7.61371 30.6696 6.85476 30.4557 6.16429 30.1701C5.46419 29.88 4.83371 29.5158 4.2861 29.0946C2.3319 27.5906 1.42619 25.3539 2.15667 23.148C3.25848 19.8206 7.67467 17.8037 11.9995 18.6513C12.4186 18.7334 12.8213 18.8396 13.2062 18.9672C13.5642 19.0866 13.9804 19.0176 14.2529 18.803C14.4375 18.6579 14.5242 18.474 14.5242 18.2924C14.5242 18.0148 14.3213 17.7422 13.9519 17.6198C13.4795 17.463 12.9842 17.3326 12.4699 17.2315C10.2917 16.8044 8.09505 16.9662 6.16429 17.5857V1.58129H29.3659V5.67419C29.3659 6.26312 29.9865 6.74041 30.7521 6.74041H36.0718V30.4423C36.0718 30.5176 36.0828 30.5932 36.111 30.6652C36.2489 31.0149 36.6749 31.2098 37.1015 31.1788C37.5771 31.1439 37.9498 30.8216 37.9498 30.4451V5.53008C37.9498 5.33704 37.8521 5.15558 37.6747 5.01924L31.6003 0.348251C31.423 0.211841 31.1871 0.136749 30.9364 0.136749H5.67248C4.90705 0.136749 4.28638 0.614112 4.28638 1.20298V18.3777C2.28248 19.4504 0.775334 21.0876 0.220476 23.0822C-0.638666 26.1671 1.07476 29.2697 4.2861 30.9972V35.7004C4.2861 36.2894 4.90705 36.7671 5.67286 36.7671H36.5633C37.329 36.7671 37.95 36.2894 37.95 35.7004V33.9957C37.95 33.6192 37.5776 33.2975 37.1014 33.2624Z" fill="#FFC917"/>
</g>
<path fill-rule="evenodd" clip-rule="evenodd" d="M16.0355 19.7454L8.8638 26.32L6.37551 23.0047C6.13666 22.6865 5.55818 22.6108 5.05885 22.8326C4.55942 23.0544 4.35532 23.4775 4.59428 23.7958L7.84218 28.123C7.85409 28.1389 7.86742 28.1538 7.88113 28.1685C7.92513 28.2189 7.97751 28.2653 8.04009 28.3058C8.48189 28.5909 9.19513 28.4775 9.66408 28.0476L17.6111 20.7624C18.08 20.3326 18.1013 19.7724 17.6596 19.4874C17.2178 19.2022 16.5045 19.3156 16.0355 19.7454Z" fill="#FFC917"/>
</svg>
