<svg width="38" height="38" viewBox="0 0 38 38" fill="none" xmlns="http://www.w3.org/2000/svg">
<mask id="mask0" mask-type="alpha" maskUnits="userSpaceOnUse" x="0" y="0" width="38" height="37">
<path fill-rule="evenodd" clip-rule="evenodd" d="M0 0.0802307H38V36.5416H0V0.0802307Z" fill="white"/>
</mask>
<g mask="url(#mask0)">
<path fill-rule="evenodd" clip-rule="evenodd" d="M36.4783 24.9046C36.4767 25.1344 36.4039 25.3623 36.2733 25.5462L31.0994 32.8278C30.1608 34.1486 28.6667 34.9372 27.1025 34.9372H16.6698C14.1016 34.9372 12.1402 34.5254 10.4256 34.0429C10.4259 33.5376 10.4259 32.6054 10.4258 30.8596L10.4257 25.9067C11.6786 25.421 13.5076 24.8116 14.2858 24.8116C14.8801 24.8116 16.4541 25.2212 17.8429 25.5827C19.4794 26.0086 20.8929 26.3764 21.6309 26.3764H25.969C26.3226 26.3764 26.6673 26.5277 26.896 26.8124C27.2715 27.2797 27.2714 27.9582 26.8961 28.4256C26.6675 28.7102 26.3228 28.8614 25.9692 28.8614H19.5739C19.1541 28.8614 18.8139 29.2206 18.8139 29.6636C18.8139 30.1067 19.1541 30.4658 19.5739 30.4658H27.8741C29.0037 30.4658 29.429 29.9467 29.8793 29.397C29.9696 29.2867 30.0632 29.1727 30.1715 29.0498L34.7044 23.9133C34.8997 23.692 35.1777 23.5676 35.4625 23.569C36.0273 23.569 36.4841 24.0546 36.4801 24.6508L36.4783 24.9046ZM18.4523 16.4068H22.748V10.6335H18.4523V16.4068ZM11.9736 10.6177H14.1454H14.1455H16.9323V16.8079C16.9323 17.4725 17.4427 18.0113 18.0723 18.0113H23.128C23.7576 18.0113 24.268 17.4725 24.268 16.8079V10.6177H27.0548H27.0549H29.2266V27.7665L29.0593 27.9563C28.9318 28.1007 28.8243 28.2319 28.7295 28.3476C28.656 28.4374 28.5951 28.5116 28.5416 28.5731C28.8078 27.7841 28.7336 26.901 28.319 26.1645C27.8353 25.3055 26.9469 24.772 26.0004 24.772H21.6309C21.0774 24.772 19.5523 24.3751 18.2068 24.0249C16.5909 23.6044 15.0647 23.2072 14.2858 23.2072C13.6881 23.2072 12.8175 23.4174 11.9736 23.6757V10.6177ZM14.5255 1.68468H17.5941V4.54813C17.5941 5.21269 18.1045 5.75146 18.7341 5.75146H22.4662C23.0959 5.75146 23.6062 5.21269 23.6062 4.54813V1.68468H26.6748V9.0133H14.5255V1.68468ZM19.1141 4.14702H22.0862V1.68476H19.1141V4.14702ZM35.4749 21.9646C34.7641 21.9551 34.0773 22.2701 33.5922 22.8196L30.7466 26.0442V10.2166C30.7466 9.55207 30.2363 9.0133 29.6066 9.0133H28.1948V1.20334C28.1948 0.583064 27.7184 0.0802307 27.1308 0.0802307H23.6062H17.5941H14.1455C13.5159 0.0802307 13.0055 0.619003 13.0055 1.28356V9.0133H11.5936C10.9641 9.0133 10.4536 9.55207 10.4536 10.2166V24.1921C10.4376 24.198 10.4212 24.204 10.4054 24.2098C10.3147 23.641 9.84717 23.2072 9.28249 23.2072H1.14C0.510416 23.2072 0 23.7459 0 24.4105V33.0419C0 33.485 0.340328 33.8442 0.76 33.8442C1.17975 33.8442 1.52 33.485 1.52 33.0419V24.8116H8.90249L8.90241 34.6516L8.89284 34.9372H3.3155C2.89575 34.9372 2.5555 35.2963 2.5555 35.7394C2.5555 36.1825 2.89575 36.5416 3.3155 36.5416H9.28249C9.79754 36.5416 10.2324 36.1809 10.3738 35.6858C12.0653 36.1415 14.1072 36.5416 16.6698 36.5416H27.1025C29.1426 36.5416 31.0913 35.5132 32.3154 33.7905L37.4893 26.5089C37.8136 26.0524 37.9944 25.4867 37.9983 24.9161L37.9999 24.6712C38.0101 23.1907 36.8773 21.9766 35.4749 21.9646Z" fill="#3B3F51"/>
</g>
<path fill-rule="evenodd" clip-rule="evenodd" d="M0.740924 34.989C0.331664 34.989 0 35.3391 0 35.771C0 36.203 0.331664 36.5531 0.740924 36.5531C1.15011 36.5531 1.48185 36.203 1.48185 35.771C1.48185 35.3391 1.15011 34.989 0.740924 34.989Z" fill="#3B3F51"/>
</svg>
