<svg width="38" height="38" viewBox="0 0 38 38" fill="none" xmlns="http://www.w3.org/2000/svg">
<path fill-rule="evenodd" clip-rule="evenodd" d="M20.9173 27.0183H18.0947C17.7122 27.0183 17.401 27.417 17.401 27.9069C17.401 28.3971 17.7122 28.7958 18.0947 28.7958H20.9173C21.2998 28.7958 21.6109 28.3971 21.6109 27.9069C21.6109 27.417 21.2998 27.0183 20.9173 27.0183Z" fill="#3598DC"/>
<path fill-rule="evenodd" clip-rule="evenodd" d="M21.1746 3.91055H4.64612C4.25072 3.91055 3.9292 4.30921 3.9292 4.79927C3.9292 5.28941 4.25072 5.68807 4.64612 5.68807H21.1746C21.57 5.68807 21.8915 5.28941 21.8915 4.79927C21.8915 4.30921 21.57 3.91055 21.1746 3.91055Z" fill="#3598DC"/>
<mask id="mask0" mask-type="alpha" maskUnits="userSpaceOnUse" x="0" y="0" width="38" height="38">
<path fill-rule="evenodd" clip-rule="evenodd" d="M0 0.00384521H37.6085V37.3279H0V0.00384521Z" fill="white"/>
</mask>
<g mask="url(#mask0)">
<path fill-rule="evenodd" clip-rule="evenodd" d="M36.0861 21.1689V22.9472H35.2484C34.9147 22.9472 34.6442 22.6043 34.6442 22.1815V21.1689H36.0861ZM33.663 30.6691C33.6544 30.6051 33.6463 30.5411 33.6361 30.4776L33.6359 30.4762C33.2077 27.8393 31.3547 25.9255 29.2297 25.9255C27.7103 25.9255 26.3303 26.9043 25.5104 28.4262V24.4602C25.5104 23.9316 25.1723 23.5031 24.7552 23.5031C24.3381 23.5031 24 23.9316 24 24.4602V30.6987L23.9766 30.6691H12.8121C12.8037 30.6051 12.7955 30.5411 12.7852 30.4776L12.7851 30.4762C12.357 27.8393 10.5039 25.9255 8.37885 25.9255C6.25389 25.9255 4.40088 27.8393 3.97254 30.4774C3.96226 30.541 3.95418 30.6051 3.94557 30.6691H1.51038V1.91806H23.9766V16.0069H24V19.8354C24 20.3641 24.3381 20.7926 24.7552 20.7926C25.1723 20.7926 25.5104 20.3641 25.5104 19.8354V17.9211H34.9654C35.5638 17.9211 36.0526 18.5096 36.0941 19.2547H34.2666C33.641 19.2547 33.1338 19.8975 33.1338 20.6904V22.9472C33.1338 24.0044 33.8101 24.8614 34.6442 24.8614H36.0982V30.6691H33.663ZM32.1564 32.3904C31.872 34.1422 30.6412 35.4136 29.2297 35.4136C27.8182 35.4136 26.5874 34.1422 26.3032 32.3918C26.2627 32.1407 26.2422 31.8831 26.2422 31.6263C26.2422 31.3693 26.2627 31.1117 26.303 30.862C26.5873 29.1109 27.8182 27.8398 29.2297 27.8398C30.6412 27.8398 31.8722 29.1109 32.1564 30.862C32.1968 31.1127 32.2172 31.3698 32.2172 31.6263C32.2172 31.8831 32.1968 32.1407 32.1564 32.3904ZM11.3057 32.3904C11.0213 34.1422 9.79038 35.4136 8.37885 35.4136C6.9674 35.4136 5.73659 34.1422 5.45233 32.3918C5.41186 32.1407 5.39131 31.8831 5.39131 31.6263C5.39131 31.3693 5.41186 31.1117 5.45211 30.862C5.73644 29.1109 6.96732 27.8398 8.37885 27.8398C9.79046 27.8398 11.0213 29.1109 11.3057 30.862C11.346 31.1127 11.3664 31.3698 11.3664 31.6263C11.3664 31.8831 11.3459 32.1407 11.3057 32.3904ZM31.9296 11.4617L32.8263 16.0069H25.487V11.4617H31.9296ZM25.5819 6.52491H31.1773C31.8029 6.52491 32.3101 7.16771 32.3101 7.9606V9.54742H25.5819V6.52491ZM35.343 16.0069H34.3831L33.4193 11.1211C33.6645 10.8578 33.8205 10.4652 33.8205 10.026V7.48203C33.8205 5.89626 32.8061 4.61065 31.5549 4.61065H25.487V1.4395C25.487 0.646524 24.9799 0.0038147 24.3542 0.0038147H1.13279C0.507187 0.0038147 0 0.646524 0 1.4395V31.1477C0 31.9406 0.507187 32.5834 1.13279 32.5834H3.94565C3.95418 32.6478 3.96242 32.7122 3.97276 32.7763C4.40096 35.4136 6.25397 37.3279 8.37885 37.3279C10.5038 37.3279 12.3568 35.4136 12.7852 32.7749C12.7955 32.7115 12.8037 32.6473 12.8121 32.5834H24.7964C24.805 32.6478 24.8133 32.7122 24.8235 32.7763C25.2518 35.4136 27.1048 37.3279 29.2297 37.3279C31.3546 37.3279 33.2077 35.4136 33.6361 32.7749C33.6463 32.7115 33.6544 32.6473 33.663 32.5834H36.4758C37.1014 32.5834 37.6086 31.9406 37.6086 31.1477V18.8782C37.6086 17.2925 36.5943 16.0069 35.343 16.0069Z" fill="#3598DC"/>
</g>
<path fill-rule="evenodd" clip-rule="evenodd" d="M29.1887 30.2178C28.5687 30.2178 28.066 30.8545 28.066 31.6398C28.066 32.4252 28.5687 33.0619 29.1887 33.0619C29.8087 33.0619 30.3113 32.4252 30.3113 31.6398C30.3113 30.8545 29.8087 30.2178 29.1887 30.2178Z" fill="#3598DC"/>
<path fill-rule="evenodd" clip-rule="evenodd" d="M8.41988 30.2178C7.79989 30.2178 7.29724 30.8545 7.29724 31.6398C7.29724 32.4252 7.79989 33.0619 8.41988 33.0619C9.03988 33.0619 9.54253 32.4252 9.54253 31.6398C9.54253 30.8545 9.03988 30.2178 8.41988 30.2178Z" fill="#3598DC"/>
</svg>
